<svg id="Layer_1" enable-background="new 0 0 512 512" height="512" viewBox="0 0 512 512" width="512" xmlns="http://www.w3.org/2000/svg"><path d="m413.712 479.83c2.459 0 4.306 2.194 3.955 4.627-2.243 15.577-15.641 27.543-31.839 27.543h-259.66c-16.199 0-29.597-11.966-31.84-27.542-.35-2.434 1.497-4.627 3.955-4.627h315.429z"/><path d="m417.997 306c0-17.673-14.327-32-32-32h-260c-17.673 0-32 14.327-32 32v153.67c0 2.209 1.791 4 4 4h316c2.209 0 4-1.791 4-4zm-124 117.787v8.939c0 4.261-3.215 7.981-7.467 8.257-4.659.302-8.533-3.388-8.533-7.983v-4.43c0-.828-.672-1.5-1.5-1.5h-1c-.828 0-1.5.672-1.5 1.5v4.346c0 4.261-3.215 7.981-7.467 8.257-4.659.302-8.533-3.388-8.533-7.983v-4.62c0-.828-.672-1.5-1.5-1.5h-2c-.828 0-1.5.672-1.5 1.5v4.346c0 4.261-3.216 7.982-7.468 8.257-4.659.301-8.532-3.389-8.532-7.983v-4.62c0-2.024-3-1.959-3 0v4.156c0 4.261-3.216 7.982-7.468 8.257-4.659.301-8.532-3.389-8.532-7.983 0-10.029.206-9.786-.583-10.396-16.704-12.914-25.925-33.307-24.214-54.902 2.578-32.538 30.123-57.875 62.763-57.892 34.754-.018 63.034 28.25 63.034 63 0 19.657-9.037 37.895-24.419 49.801-.364.282-.581.714-.581 1.176z"/><path d="m247.997 397.11c0 4.418 3.582 8 8 8s8-3.582 8-8c0-4.731-3.742-8.11-8-8.11-4.256 0-8 3.379-8 8.11z"/><path d="m233.997 389c8.822 0 16-7.178 16-16s-7.178-16-16-16-16 7.178-16 16 7.178 16 16 16z"/><path d="m277.997 389c8.822 0 16-7.178 16-16s-7.178-16-16-16-16 7.178-16 16 7.178 16 16 16z"/><path d="m240.511 176.01-4.367-4.367c-3.124-3.123-8.189-3.123-11.313 0-3.125 3.125-3.125 8.189 0 11.314 6.607 6.607 8.116 9.053 12.367 9.053 14.791 0 14.679.726 18.8-3.396 4.168 4.172 4.084 3.396 18.8 3.396 4.159 0 5.45-2.135 12.367-9.053 3.124-3.125 3.124-8.189 0-11.314-3.125-3.123-8.189-3.123-11.314 0l-4.366 4.367h-5.463l-4.366-4.367c-3.124-3.122-8.189-3.123-11.314 0l-4.367 4.367z"/><path d="m217.606 141.839c11.954 3.885 16.175-3.207 20.046-1.486 4.036 1.789 8.765-.029 10.557-4.067 4.391-9.892-10.459-15.864-21.557-9.97-1.099.576-2.142.956-3.643.456-10.879-3.535-15.316 11.846-5.403 15.067z"/><path d="m274.341 140.353c3.566-1.586 4.967 2.642 13.33 2.642 18.802 0 13.38-20.144 1.264-16.206-1.463.486-2.556.07-3.557-.454-11.135-5.91-26 .02-21.594 9.95 1.792 4.037 6.515 5.86 10.557 4.068z"/><path d="m487.877 371.63-15.19-62.64c-6.36-26.271-25.18-47.85-50.34-57.73-.058-.014-75.114-28.099-75.17-28.12 20.586-16.468 27.147-39.493 21.92-60.68l-22.65-91.66c-10.3-41.69-47.48-70.8-90.42-70.8-42.99 0-80.17 29.15-90.43 70.89-16.974 68.998-11.764 47.824-22.79 92.62-5.188 21.098 1.639 44.639 21.12 59.96-74.737 27.966-74.18 27.766-74.28 27.79-25.16 9.89-43.98 31.46-50.34 57.73-16.606 68.48-15.374 63.343-15.68 64.79-7.825 36.866 15.166 73.353 51.56 83.17 2.55.69 5.06-1.22 5.06-3.87v-157.41c0-19.198 15.54-34.612 34.5-34.72h282.49c19.01.108 34.51 15.564 34.51 34.72v157.56c0 2.64 2.51 4.56 5.06 3.87 37.244-10.07 60.263-47.65 51.07-85.47zm-168.528-258.449-2.842 41.696c-1.423 20.93-11.833 40.206-28.559 52.886-24.429 18.502-22.665 17.23-23.95 17.981v-9.204c0-4.418-3.582-8-8-8s-8 3.582-8 8v9.204c-1.291-.755.474.517-23.947-17.979-16.728-12.681-27.138-31.958-28.562-52.889l-2.842-41.694c38.959-23.18 87.598-23.269 126.702-.001zm19.719 95.959-26.7 21.4c-33.186 26.625-79.727 26.81-113.15.41l-26.12-20.63c-12.88-10.18-18.67-27.05-14.75-42.99l8.238-33.47c3.391-3.527 6.982-6.847 10.756-9.941l2.184 32.043c1.737 25.547 14.442 49.075 34.862 64.554l22.334 16.916c11.008 8.352 26.888 8.849 38.546.004l22.343-16.922c20.416-15.477 33.122-39.005 34.858-64.551l2.185-32.047c3.84 3.147 7.491 6.528 10.932 10.122l7.972 32.261c3.909 15.821-1.781 32.641-14.49 42.841z"/></svg>